<svg xmlns="http://www.w3.org/2000/svg" viewBox="0 0 64 64" width="64" height="64">
  
  <defs>
    <clipPath id="bagClip">
      <path d="M16 24 C 16 22, 18 20, 20 20 L 44 20 C 46 20, 48 22, 48 24 L 52 50 C 52 56, 46 60, 32 60 C 18 60, 12 56, 12 50 Z"></path>
    </clipPath>
  </defs>
  
  <path d="M16 24 C 16 22, 18 20, 20 20 L 44 20 C 46 20, 48 22, 48 24 L 52 50 C 52 56, 46 60, 32 60 C 18 60, 12 56, 12 50 Z" fill="#1f2937" stroke="#1f2937" stroke-width="2" stroke-linejoin="round"></path>
  
  <path d="M22 20 L 18 10 L 30 14 L 34 14 L 46 10 L 42 20 Z" fill="#1f2937" stroke="#1f2937" stroke-width="2" stroke-linejoin="round"></path>
  
  <g fill="#ffffff" font-family="Helvetica, Arial, sans-serif" font-weight="800">
    <text x="32" y="48" text-anchor="middle" font-size="26">K</text>
  </g>
</svg>