<svg xmlns="http://www.w3.org/2000/svg" viewBox="0 0 600 60" width="600" height="60">
  <g fill="#7dd3c0">
    <rect x="2" y="22" width="3" height="16" rx="1.5"></rect>
    <rect x="10" y="14" width="3" height="32" rx="1.5"></rect>
    <rect x="18" y="20" width="3" height="20" rx="1.5"></rect>
    <rect x="26" y="8" width="3" height="44" rx="1.5"></rect>
    <rect x="34" y="18" width="3" height="24" rx="1.5"></rect>
    <rect x="42" y="24" width="3" height="12" rx="1.5"></rect>
    <rect x="50" y="12" width="3" height="36" rx="1.5"></rect>
    <rect x="58" y="20" width="3" height="20" rx="1.5"></rect>
    <rect x="66" y="6" width="3" height="48" rx="1.5"></rect>
    <rect x="74" y="16" width="3" height="28" rx="1.5"></rect>
    <rect x="82" y="22" width="3" height="16" rx="1.5"></rect>
    <rect x="90" y="14" width="3" height="32" rx="1.5"></rect>
    <rect x="98" y="20" width="3" height="20" rx="1.5"></rect>
    <rect x="106" y="10" width="3" height="40" rx="1.5"></rect>
    <rect x="114" y="18" width="3" height="24" rx="1.5"></rect>
    <rect x="122" y="22" width="3" height="16" rx="1.5"></rect>
    <rect x="130" y="12" width="3" height="36" rx="1.5"></rect>
    <rect x="138" y="24" width="3" height="12" rx="1.5"></rect>
    <rect x="146" y="16" width="3" height="28" rx="1.5"></rect>
    <rect x="154" y="8" width="3" height="44" rx="1.5"></rect>
    <rect x="162" y="20" width="3" height="20" rx="1.5"></rect>
    <rect x="170" y="14" width="3" height="32" rx="1.5"></rect>
    <rect x="178" y="22" width="3" height="16" rx="1.5"></rect>
    <rect x="186" y="10" width="3" height="40" rx="1.5"></rect>
    <rect x="194" y="18" width="3" height="24" rx="1.5"></rect>
    <rect x="202" y="6" width="3" height="48" rx="1.5"></rect>
    <rect x="210" y="20" width="3" height="20" rx="1.5"></rect>
    <rect x="218" y="16" width="3" height="28" rx="1.5"></rect>
    <rect x="226" y="22" width="3" height="16" rx="1.5"></rect>
    <rect x="234" y="12" width="3" height="36" rx="1.5"></rect>
    <rect x="242" y="24" width="3" height="12" rx="1.5"></rect>
    <rect x="250" y="14" width="3" height="32" rx="1.5"></rect>
    <rect x="258" y="20" width="3" height="20" rx="1.5"></rect>
    <rect x="266" y="8" width="3" height="44" rx="1.5"></rect>
    <rect x="274" y="18" width="3" height="24" rx="1.5"></rect>
    <rect x="282" y="22" width="3" height="16" rx="1.5"></rect>
    <rect x="290" y="10" width="3" height="40" rx="1.5"></rect>
    <rect x="298" y="20" width="3" height="20" rx="1.5"></rect>
    <rect x="306" y="16" width="3" height="28" rx="1.5"></rect>
    <rect x="314" y="22" width="3" height="16" rx="1.5"></rect>
    <rect x="322" y="12" width="3" height="36" rx="1.5"></rect>
    <rect x="330" y="6" width="3" height="48" rx="1.5"></rect>
    <rect x="338" y="18" width="3" height="24" rx="1.5"></rect>
    <rect x="346" y="24" width="3" height="12" rx="1.5"></rect>
    <rect x="354" y="14" width="3" height="32" rx="1.5"></rect>
    <rect x="362" y="20" width="3" height="20" rx="1.5"></rect>
    <rect x="370" y="22" width="3" height="16" rx="1.5"></rect>
    <rect x="378" y="10" width="3" height="40" rx="1.5"></rect>
    <rect x="386" y="18" width="3" height="24" rx="1.5"></rect>
    <rect x="394" y="22" width="3" height="16" rx="1.5"></rect>
    <rect x="402" y="14" width="3" height="32" rx="1.5"></rect>
    <rect x="410" y="20" width="3" height="20" rx="1.5"></rect>
    <rect x="418" y="8" width="3" height="44" rx="1.5"></rect>
    <rect x="426" y="22" width="3" height="16" rx="1.5"></rect>
    <rect x="434" y="16" width="3" height="28" rx="1.5"></rect>
    <rect x="442" y="24" width="3" height="12" rx="1.5"></rect>
    <rect x="450" y="12" width="3" height="36" rx="1.5"></rect>
    <rect x="458" y="20" width="3" height="20" rx="1.5"></rect>
    <rect x="466" y="6" width="3" height="48" rx="1.5"></rect>
    <rect x="474" y="18" width="3" height="24" rx="1.5"></rect>
    <rect x="482" y="22" width="3" height="16" rx="1.5"></rect>
    <rect x="490" y="14" width="3" height="32" rx="1.5"></rect>
    <rect x="498" y="20" width="3" height="20" rx="1.5"></rect>
    <rect x="506" y="10" width="3" height="40" rx="1.5"></rect>
    <rect x="514" y="18" width="3" height="24" rx="1.5"></rect>
    <rect x="522" y="22" width="3" height="16" rx="1.5"></rect>
    <rect x="530" y="12" width="3" height="36" rx="1.5"></rect>
    <rect x="538" y="20" width="3" height="20" rx="1.5"></rect>
    <rect x="546" y="14" width="3" height="32" rx="1.5"></rect>
    <rect x="554" y="22" width="3" height="16" rx="1.5"></rect>
    <rect x="562" y="8" width="3" height="44" rx="1.5"></rect>
    <rect x="570" y="20" width="3" height="20" rx="1.5"></rect>
    <rect x="578" y="18" width="3" height="24" rx="1.5"></rect>
    <rect x="586" y="22" width="3" height="16" rx="1.5"></rect>
    <rect x="594" y="14" width="3" height="32" rx="1.5"></rect>
  </g>
</svg>