<svg xmlns="http://www.w3.org/2000/svg" viewBox="0 0 200 200" width="200" height="200">
  <g fill="#7dd3c0">
    <circle cx="10" cy="10" r="2"></circle><circle cx="30" cy="10" r="2"></circle><circle cx="50" cy="10" r="2"></circle><circle cx="70" cy="10" r="2"></circle><circle cx="90" cy="10" r="2"></circle><circle cx="110" cy="10" r="2"></circle><circle cx="130" cy="10" r="2"></circle><circle cx="150" cy="10" r="2"></circle><circle cx="170" cy="10" r="2"></circle><circle cx="190" cy="10" r="2"></circle>
    <circle cx="10" cy="30" r="2"></circle><circle cx="30" cy="30" r="2"></circle><circle cx="50" cy="30" r="2"></circle><circle cx="70" cy="30" r="2"></circle><circle cx="90" cy="30" r="2"></circle><circle cx="110" cy="30" r="2"></circle><circle cx="130" cy="30" r="2"></circle><circle cx="150" cy="30" r="2"></circle><circle cx="170" cy="30" r="2"></circle><circle cx="190" cy="30" r="2"></circle>
    <circle cx="10" cy="50" r="2"></circle><circle cx="30" cy="50" r="2"></circle><circle cx="50" cy="50" r="2"></circle><circle cx="70" cy="50" r="2"></circle><circle cx="90" cy="50" r="2"></circle><circle cx="110" cy="50" r="2"></circle><circle cx="130" cy="50" r="2"></circle><circle cx="150" cy="50" r="2"></circle><circle cx="170" cy="50" r="2"></circle><circle cx="190" cy="50" r="2"></circle>
    <circle cx="10" cy="70" r="2"></circle><circle cx="30" cy="70" r="2"></circle><circle cx="50" cy="70" r="2"></circle><circle cx="70" cy="70" r="2"></circle><circle cx="90" cy="70" r="2"></circle><circle cx="110" cy="70" r="2"></circle><circle cx="130" cy="70" r="2"></circle><circle cx="150" cy="70" r="2"></circle><circle cx="170" cy="70" r="2"></circle><circle cx="190" cy="70" r="2"></circle>
    <circle cx="10" cy="90" r="2"></circle><circle cx="30" cy="90" r="2"></circle><circle cx="50" cy="90" r="2"></circle><circle cx="70" cy="90" r="2"></circle><circle cx="90" cy="90" r="2"></circle><circle cx="110" cy="90" r="2"></circle><circle cx="130" cy="90" r="2"></circle><circle cx="150" cy="90" r="2"></circle><circle cx="170" cy="90" r="2"></circle><circle cx="190" cy="90" r="2"></circle>
  </g>
</svg>