<svg xmlns="http://www.w3.org/2000/svg" viewBox="0 0 120 120" width="120" height="120">
  <circle cx="60" cy="60" r="58" fill="#e0f2fe"></circle>
  
  <path d="M14 120 Q 14 88, 60 88 Q 106 88, 106 120 Z" fill="#1f2937"></path>
  
  <circle cx="60" cy="54" r="26" fill="#1f2937"></circle>
  
  <path d="M36 50 Q 38 30, 60 28 Q 82 30, 84 50 Q 80 42, 60 42 Q 40 42, 36 50 Z" fill="#0f172a"></path>
  
  <path d="M32 56 Q 32 28, 60 28 Q 88 28, 88 56" fill="none" stroke="#bef264" stroke-width="4" stroke-linecap="round"></path>
  <rect x="26" y="52" width="14" height="22" rx="4" fill="#bef264"></rect>
  <rect x="80" y="52" width="14" height="22" rx="4" fill="#bef264"></rect>
  <rect x="30" y="56" width="6" height="14" rx="2" fill="#1f2937"></rect>
  <rect x="84" y="56" width="6" height="14" rx="2" fill="#1f2937"></rect>
</svg>